<?xml version="1.0" standalone="no"?>
<!DOCTYPE svg PUBLIC "-//W3C//DTD SVG 20010904//EN"
 "http://www.w3.org/TR/2001/REC-SVG-20010904/DTD/svg10.dtd">
<svg version="1.0" xmlns="http://www.w3.org/2000/svg"
 width="512.000000pt" height="512.000000pt" viewBox="0 0 512.000000 512.000000"
 preserveAspectRatio="xMidYMid meet">
<metadata>
Created by potrace 1.14, written by Peter Selinger 2001-2017
</metadata>
<g transform="translate(0.000000,512.000000) scale(0.100000,-0.100000)"
fill="#000000" stroke="none">
<path d="M2270 4644 c-227 -30 -452 -100 -665 -206 -209 -104 -367 -217 -538
-386 -269 -264 -457 -583 -557 -944 l-19 -68 2060 0 2061 0 -8 33 c-14 67 -78
246 -123 347 -300 673 -954 1147 -1696 1230 -125 14 -389 11 -515 -6z m-40
-739 l0 -35 -90 0 -90 0 0 -280 0 -280 -40 0 -40 0 -2 278 -3 277 -92 3 -93 3
0 28 c0 15 3 31 7 34 3 4 105 7 225 7 l218 0 0 -35z m1003 19 c75 -38 108 -90
109 -169 1 -97 -58 -183 -210 -305 l-81 -65 149 -3 150 -3 0 -34 0 -35 -210 0
-210 0 0 33 c1 28 11 40 82 97 237 189 297 288 233 387 -19 28 -71 53 -112 53
-63 0 -122 -65 -138 -153 -7 -38 -17 -43 -61 -31 -21 5 -21 8 -10 57 21 89 54
135 121 170 40 22 146 22 188 1z m-758 -274 l92 -275 92 278 93 277 39 0 c21
0 39 -2 39 -5 0 -3 -41 -124 -91 -268 -50 -144 -98 -281 -106 -304 l-15 -43
-52 0 -52 0 -104 301 c-58 166 -107 306 -109 311 -1 5 16 8 40 6 l42 -3 92
-275z"/>
<path d="M2397 2555 l-57 -85 -47 31 c-151 96 -389 99 -550 8 -109 -63 -209
-205 -248 -354 -63 -240 -21 -562 91 -712 13 -17 24 -35 24 -38 0 -4 -28 -47
-62 -97 l-62 -90 35 -29 c19 -16 37 -29 41 -29 4 0 31 35 59 78 28 42 55 81
59 85 4 5 24 -3 44 -17 72 -49 143 -69 257 -74 175 -7 274 26 385 130 77 73
145 200 170 318 49 240 12 510 -91 667 l-34 51 65 94 64 93 -32 27 c-18 15
-38 28 -44 28 -6 0 -36 -38 -67 -85z m-225 -158 c31 -15 61 -34 68 -42 9 -11
-39 -89 -257 -409 -147 -217 -271 -395 -274 -396 -12 0 -47 96 -63 172 -46
224 3 481 115 603 75 81 138 105 265 102 75 -2 100 -7 146 -30z m185 -238 c23
-63 27 -95 31 -221 7 -226 -30 -358 -128 -462 -74 -78 -130 -101 -251 -101
-87 0 -101 3 -154 30 -32 17 -62 37 -68 46 -8 12 44 95 238 380 136 200 257
377 268 392 25 36 31 29 64 -64z"/>
<path d="M3470 2148 c0 -441 -5 -508 -47 -601 -50 -110 -141 -163 -276 -161
-156 4 -241 90 -282 289 -9 44 -18 81 -19 83 -2 2 -37 -1 -77 -5 l-74 -8 3
-53 c1 -29 14 -89 28 -133 70 -221 234 -331 473 -316 244 14 383 151 421 412
5 39 10 258 10 488 l0 417 -80 0 -80 0 0 -412z"/>
</g>
</svg>
